<mxfile host="app.diagrams.net" modified="2023-08-25T14:56:56.843Z" agent="Mozilla/5.0 (Windows NT 10.0; Win64; x64; rv:90.0) Gecko/20100101 Firefox/90.0" etag="crRqvl4tFSUb5j_pu74U" version="21.6.9" type="device">
  <diagram name="Page-1" id="j36MTkcjUDb_5ZcUL6Fn">
    <mxGraphModel dx="2858" dy="884" grid="1" gridSize="17" guides="1" tooltips="1" connect="1" arrows="1" fold="1" page="1" pageScale="1" pageWidth="1200" pageHeight="1920" math="0" shadow="0">
      <root>
        <mxCell id="0" />
        <mxCell id="1" parent="0" />
        <mxCell id="AQyn9EbPQnhVtHFG39FQ-2" value="&lt;u&gt;Branch Code&lt;/u&gt;" style="ellipse;whiteSpace=wrap;html=1;" parent="1" vertex="1">
          <mxGeometry x="25" y="238" width="103" height="68" as="geometry" />
        </mxCell>
        <mxCell id="AQyn9EbPQnhVtHFG39FQ-4" value="Branch Name " style="ellipse;whiteSpace=wrap;html=1;" parent="1" vertex="1">
          <mxGeometry x="26" y="323" width="102" height="68" as="geometry" />
        </mxCell>
        <mxCell id="AQyn9EbPQnhVtHFG39FQ-6" value="Street" style="ellipse;whiteSpace=wrap;html=1;" parent="1" vertex="1">
          <mxGeometry x="25" y="408" width="102" height="68" as="geometry" />
        </mxCell>
        <mxCell id="AQyn9EbPQnhVtHFG39FQ-7" value="City" style="ellipse;whiteSpace=wrap;html=1;" parent="1" vertex="1">
          <mxGeometry x="25" y="153" width="102" height="68" as="geometry" />
        </mxCell>
        <mxCell id="AQyn9EbPQnhVtHFG39FQ-8" value="Contact" style="ellipse;whiteSpace=wrap;html=1;" parent="1" vertex="1">
          <mxGeometry x="26" y="68" width="102" height="68" as="geometry" />
        </mxCell>
        <mxCell id="AQyn9EbPQnhVtHFG39FQ-10" value="Branch" style="rounded=0;whiteSpace=wrap;html=1;" parent="1" vertex="1">
          <mxGeometry x="272" y="238" width="120" height="60" as="geometry" />
        </mxCell>
        <mxCell id="AQyn9EbPQnhVtHFG39FQ-13" value="Admin" style="rounded=0;whiteSpace=wrap;html=1;fontSize=24;" parent="1" vertex="1">
          <mxGeometry x="238" y="748" width="120" height="60" as="geometry" />
        </mxCell>
        <mxCell id="AQyn9EbPQnhVtHFG39FQ-14" value="&lt;u&gt;ID&lt;/u&gt;" style="ellipse;whiteSpace=wrap;html=1;" parent="1" vertex="1">
          <mxGeometry x="51" y="561" width="102" height="68" as="geometry" />
        </mxCell>
        <mxCell id="AQyn9EbPQnhVtHFG39FQ-15" value="name" style="ellipse;whiteSpace=wrap;html=1;" parent="1" vertex="1">
          <mxGeometry y="646" width="102" height="68" as="geometry" />
        </mxCell>
        <mxCell id="AQyn9EbPQnhVtHFG39FQ-16" value="Email" style="ellipse;whiteSpace=wrap;html=1;" parent="1" vertex="1">
          <mxGeometry x="-34" y="731" width="102" height="68" as="geometry" />
        </mxCell>
        <mxCell id="AQyn9EbPQnhVtHFG39FQ-17" value="password " style="ellipse;whiteSpace=wrap;html=1;" parent="1" vertex="1">
          <mxGeometry y="816" width="102" height="68" as="geometry" />
        </mxCell>
        <mxCell id="AQyn9EbPQnhVtHFG39FQ-18" value="Joining Date" style="ellipse;whiteSpace=wrap;html=1;" parent="1" vertex="1">
          <mxGeometry x="26" y="901" width="102" height="68" as="geometry" />
        </mxCell>
        <mxCell id="AQyn9EbPQnhVtHFG39FQ-19" value="Manage" style="rhombus;whiteSpace=wrap;html=1;fontSize=15;" parent="1" vertex="1">
          <mxGeometry x="578" y="731" width="80" height="80" as="geometry" />
        </mxCell>
        <mxCell id="AQyn9EbPQnhVtHFG39FQ-24" value="&lt;font style=&quot;font-size: 22px;&quot;&gt;Staff&amp;nbsp; User&lt;/font&gt;" style="rounded=0;whiteSpace=wrap;html=1;" parent="1" vertex="1">
          <mxGeometry x="918" y="731" width="120" height="60" as="geometry" />
        </mxCell>
        <mxCell id="AQyn9EbPQnhVtHFG39FQ-25" value="&lt;u&gt;ID&lt;/u&gt;" style="ellipse;whiteSpace=wrap;html=1;" parent="1" vertex="1">
          <mxGeometry x="1122" y="561" width="102" height="68" as="geometry" />
        </mxCell>
        <mxCell id="AQyn9EbPQnhVtHFG39FQ-26" value="name" style="ellipse;whiteSpace=wrap;html=1;" parent="1" vertex="1">
          <mxGeometry x="1200" y="629" width="102" height="68" as="geometry" />
        </mxCell>
        <mxCell id="AQyn9EbPQnhVtHFG39FQ-27" value="Email" style="ellipse;whiteSpace=wrap;html=1;" parent="1" vertex="1">
          <mxGeometry x="1241" y="714" width="102" height="68" as="geometry" />
        </mxCell>
        <mxCell id="AQyn9EbPQnhVtHFG39FQ-28" value="Passward" style="ellipse;whiteSpace=wrap;html=1;" parent="1" vertex="1">
          <mxGeometry x="1224" y="799" width="102" height="68" as="geometry" />
        </mxCell>
        <mxCell id="AQyn9EbPQnhVtHFG39FQ-29" value="Joining Date" style="ellipse;whiteSpace=wrap;html=1;" parent="1" vertex="1">
          <mxGeometry x="1156" y="884" width="102" height="68" as="geometry" />
        </mxCell>
        <mxCell id="AQyn9EbPQnhVtHFG39FQ-30" value="Parcel" style="rounded=0;whiteSpace=wrap;html=1;fontSize=28;" parent="1" vertex="1">
          <mxGeometry x="255" y="1368" width="120" height="60" as="geometry" />
        </mxCell>
        <mxCell id="AQyn9EbPQnhVtHFG39FQ-31" value="&lt;font style=&quot;font-size: 31px;&quot;&gt;Store&lt;/font&gt;" style="rhombus;whiteSpace=wrap;html=1;" parent="1" vertex="1">
          <mxGeometry x="782" y="1071" width="114" height="119" as="geometry" />
        </mxCell>
        <mxCell id="AQyn9EbPQnhVtHFG39FQ-32" value="&lt;u&gt;Parcel id&lt;br&gt;&lt;/u&gt;" style="ellipse;whiteSpace=wrap;html=1;fontSize=18;" parent="1" vertex="1">
          <mxGeometry x="-16" y="1156" width="120" height="80" as="geometry" />
        </mxCell>
        <mxCell id="AQyn9EbPQnhVtHFG39FQ-34" value="sender information" style="ellipse;whiteSpace=wrap;html=1;fontSize=19;" parent="1" vertex="1">
          <mxGeometry x="-94" y="1236" width="120" height="80" as="geometry" />
        </mxCell>
        <mxCell id="AQyn9EbPQnhVtHFG39FQ-35" value="receiver information" style="ellipse;whiteSpace=wrap;html=1;fontSize=19;" parent="1" vertex="1">
          <mxGeometry x="-136" y="1323" width="120" height="80" as="geometry" />
        </mxCell>
        <mxCell id="AQyn9EbPQnhVtHFG39FQ-36" value="branch processed" style="ellipse;whiteSpace=wrap;html=1;fontSize=19;" parent="1" vertex="1">
          <mxGeometry x="-154" y="1428" width="120" height="80" as="geometry" />
        </mxCell>
        <mxCell id="AQyn9EbPQnhVtHFG39FQ-37" value="pickup branch" style="ellipse;whiteSpace=wrap;html=1;fontSize=19;" parent="1" vertex="1">
          <mxGeometry x="-120" y="1513" width="120" height="80" as="geometry" />
        </mxCell>
        <mxCell id="AQyn9EbPQnhVtHFG39FQ-38" value="parcel information" style="ellipse;whiteSpace=wrap;html=1;fontSize=20;" parent="1" vertex="1">
          <mxGeometry x="-69" y="1593" width="120" height="80" as="geometry" />
        </mxCell>
        <mxCell id="AQyn9EbPQnhVtHFG39FQ-39" value="sender name" style="ellipse;whiteSpace=wrap;html=1;fontSize=17;" parent="1" vertex="1">
          <mxGeometry x="-288" y="986" width="120" height="80" as="geometry" />
        </mxCell>
        <mxCell id="AQyn9EbPQnhVtHFG39FQ-41" value="sender contact" style="ellipse;whiteSpace=wrap;html=1;fontSize=18;" parent="1" vertex="1">
          <mxGeometry x="-459" y="1136.5" width="120" height="80" as="geometry" />
        </mxCell>
        <mxCell id="AQyn9EbPQnhVtHFG39FQ-42" value="sender address" style="ellipse;whiteSpace=wrap;html=1;fontSize=18;" parent="1" vertex="1">
          <mxGeometry x="-374" y="1056.5" width="120" height="80" as="geometry" />
        </mxCell>
        <mxCell id="AQyn9EbPQnhVtHFG39FQ-43" value="recipient name" style="ellipse;whiteSpace=wrap;html=1;fontSize=18;" parent="1" vertex="1">
          <mxGeometry x="-561" y="1258" width="120" height="80" as="geometry" />
        </mxCell>
        <mxCell id="AQyn9EbPQnhVtHFG39FQ-44" value="recipient address" style="ellipse;whiteSpace=wrap;html=1;fontSize=18;" parent="1" vertex="1">
          <mxGeometry x="-600" y="1348" width="120" height="80" as="geometry" />
        </mxCell>
        <mxCell id="AQyn9EbPQnhVtHFG39FQ-45" value="recipient contact " style="ellipse;whiteSpace=wrap;html=1;fontSize=19;" parent="1" vertex="1">
          <mxGeometry x="-544" y="1445" width="120" height="80" as="geometry" />
        </mxCell>
        <mxCell id="AQyn9EbPQnhVtHFG39FQ-46" value="Weight" style="ellipse;whiteSpace=wrap;html=1;fontSize=22;" parent="1" vertex="1">
          <mxGeometry x="-189" y="1802" width="120" height="80" as="geometry" />
        </mxCell>
        <mxCell id="AQyn9EbPQnhVtHFG39FQ-47" value="price" style="ellipse;whiteSpace=wrap;html=1;fontSize=28;" parent="1" vertex="1">
          <mxGeometry x="-52" y="1802" width="120" height="80" as="geometry" />
        </mxCell>
        <mxCell id="5QruSL7Tj9jKYq54d8jK-1" value="Status" style="rounded=0;whiteSpace=wrap;html=1;fontSize=28;" parent="1" vertex="1">
          <mxGeometry x="663" y="1644" width="120" height="60" as="geometry" />
        </mxCell>
        <mxCell id="5QruSL7Tj9jKYq54d8jK-2" value="&lt;u&gt;Status id&lt;br&gt;&lt;/u&gt;" style="ellipse;whiteSpace=wrap;html=1;fontSize=18;" parent="1" vertex="1">
          <mxGeometry x="578" y="1802" width="120" height="80" as="geometry" />
        </mxCell>
        <mxCell id="5QruSL7Tj9jKYq54d8jK-4" value="Status name" style="ellipse;whiteSpace=wrap;html=1;fontSize=18;" parent="1" vertex="1">
          <mxGeometry x="765" y="1802" width="120" height="80" as="geometry" />
        </mxCell>
        <mxCell id="5QruSL7Tj9jKYq54d8jK-5" value="" style="endArrow=none;html=1;rounded=0;exitX=1;exitY=0.5;exitDx=0;exitDy=0;entryX=0;entryY=0;entryDx=0;entryDy=0;" parent="1" source="AQyn9EbPQnhVtHFG39FQ-8" target="AQyn9EbPQnhVtHFG39FQ-10" edge="1">
          <mxGeometry width="50" height="50" relative="1" as="geometry">
            <mxPoint x="442" y="356" as="sourcePoint" />
            <mxPoint x="492" y="306" as="targetPoint" />
          </mxGeometry>
        </mxCell>
        <mxCell id="5QruSL7Tj9jKYq54d8jK-6" value="" style="endArrow=none;html=1;rounded=0;entryX=0;entryY=0.25;entryDx=0;entryDy=0;" parent="1" source="AQyn9EbPQnhVtHFG39FQ-7" target="AQyn9EbPQnhVtHFG39FQ-10" edge="1">
          <mxGeometry width="50" height="50" relative="1" as="geometry">
            <mxPoint x="442" y="356" as="sourcePoint" />
            <mxPoint x="492" y="306" as="targetPoint" />
          </mxGeometry>
        </mxCell>
        <mxCell id="5QruSL7Tj9jKYq54d8jK-7" value="" style="endArrow=none;html=1;rounded=0;exitX=1;exitY=0.5;exitDx=0;exitDy=0;entryX=0;entryY=0.5;entryDx=0;entryDy=0;" parent="1" source="AQyn9EbPQnhVtHFG39FQ-2" target="AQyn9EbPQnhVtHFG39FQ-10" edge="1">
          <mxGeometry width="50" height="50" relative="1" as="geometry">
            <mxPoint x="459" y="373" as="sourcePoint" />
            <mxPoint x="509" y="323" as="targetPoint" />
          </mxGeometry>
        </mxCell>
        <mxCell id="5QruSL7Tj9jKYq54d8jK-8" value="" style="endArrow=none;html=1;rounded=0;exitX=1;exitY=0.5;exitDx=0;exitDy=0;entryX=0;entryY=1;entryDx=0;entryDy=0;" parent="1" source="AQyn9EbPQnhVtHFG39FQ-4" target="AQyn9EbPQnhVtHFG39FQ-10" edge="1">
          <mxGeometry width="50" height="50" relative="1" as="geometry">
            <mxPoint x="476" y="390" as="sourcePoint" />
            <mxPoint x="526" y="340" as="targetPoint" />
          </mxGeometry>
        </mxCell>
        <mxCell id="5QruSL7Tj9jKYq54d8jK-9" value="" style="endArrow=none;html=1;rounded=0;exitX=1;exitY=0.5;exitDx=0;exitDy=0;entryX=0.25;entryY=1;entryDx=0;entryDy=0;" parent="1" source="AQyn9EbPQnhVtHFG39FQ-6" target="AQyn9EbPQnhVtHFG39FQ-10" edge="1">
          <mxGeometry width="50" height="50" relative="1" as="geometry">
            <mxPoint x="493" y="407" as="sourcePoint" />
            <mxPoint x="543" y="357" as="targetPoint" />
          </mxGeometry>
        </mxCell>
        <mxCell id="5QruSL7Tj9jKYq54d8jK-11" value="" style="endArrow=none;html=1;rounded=0;exitX=1;exitY=0.397;exitDx=0;exitDy=0;exitPerimeter=0;entryX=0;entryY=0;entryDx=0;entryDy=0;" parent="1" source="AQyn9EbPQnhVtHFG39FQ-14" target="AQyn9EbPQnhVtHFG39FQ-13" edge="1">
          <mxGeometry width="50" height="50" relative="1" as="geometry">
            <mxPoint x="527" y="441" as="sourcePoint" />
            <mxPoint x="577" y="391" as="targetPoint" />
          </mxGeometry>
        </mxCell>
        <mxCell id="5QruSL7Tj9jKYq54d8jK-13" value="" style="endArrow=none;html=1;rounded=0;exitX=1;exitY=0.5;exitDx=0;exitDy=0;entryX=0;entryY=0.25;entryDx=0;entryDy=0;" parent="1" source="AQyn9EbPQnhVtHFG39FQ-15" target="AQyn9EbPQnhVtHFG39FQ-13" edge="1">
          <mxGeometry width="50" height="50" relative="1" as="geometry">
            <mxPoint x="442" y="951" as="sourcePoint" />
            <mxPoint x="492" y="901" as="targetPoint" />
          </mxGeometry>
        </mxCell>
        <mxCell id="5QruSL7Tj9jKYq54d8jK-15" value="" style="endArrow=none;html=1;rounded=0;exitX=1;exitY=0.5;exitDx=0;exitDy=0;entryX=0;entryY=0.5;entryDx=0;entryDy=0;" parent="1" source="AQyn9EbPQnhVtHFG39FQ-16" target="AQyn9EbPQnhVtHFG39FQ-13" edge="1">
          <mxGeometry width="50" height="50" relative="1" as="geometry">
            <mxPoint x="442" y="951" as="sourcePoint" />
            <mxPoint x="492" y="901" as="targetPoint" />
          </mxGeometry>
        </mxCell>
        <mxCell id="5QruSL7Tj9jKYq54d8jK-16" value="" style="endArrow=none;html=1;rounded=0;exitX=1;exitY=0.5;exitDx=0;exitDy=0;entryX=0;entryY=1;entryDx=0;entryDy=0;" parent="1" source="AQyn9EbPQnhVtHFG39FQ-17" target="AQyn9EbPQnhVtHFG39FQ-13" edge="1">
          <mxGeometry width="50" height="50" relative="1" as="geometry">
            <mxPoint x="459" y="968" as="sourcePoint" />
            <mxPoint x="509" y="918" as="targetPoint" />
          </mxGeometry>
        </mxCell>
        <mxCell id="5QruSL7Tj9jKYq54d8jK-17" value="" style="endArrow=none;html=1;rounded=0;entryX=0.25;entryY=1;entryDx=0;entryDy=0;" parent="1" source="AQyn9EbPQnhVtHFG39FQ-18" target="AQyn9EbPQnhVtHFG39FQ-13" edge="1">
          <mxGeometry width="50" height="50" relative="1" as="geometry">
            <mxPoint x="476" y="985" as="sourcePoint" />
            <mxPoint x="526" y="935" as="targetPoint" />
          </mxGeometry>
        </mxCell>
        <mxCell id="5QruSL7Tj9jKYq54d8jK-18" value="" style="endArrow=none;html=1;rounded=0;entryX=0;entryY=0;entryDx=0;entryDy=0;" parent="1" source="AQyn9EbPQnhVtHFG39FQ-32" target="AQyn9EbPQnhVtHFG39FQ-30" edge="1">
          <mxGeometry width="50" height="50" relative="1" as="geometry">
            <mxPoint x="442" y="1478" as="sourcePoint" />
            <mxPoint x="492" y="1428" as="targetPoint" />
          </mxGeometry>
        </mxCell>
        <mxCell id="5QruSL7Tj9jKYq54d8jK-19" value="" style="endArrow=none;html=1;rounded=0;exitX=1;exitY=0.5;exitDx=0;exitDy=0;entryX=0;entryY=0.25;entryDx=0;entryDy=0;" parent="1" source="AQyn9EbPQnhVtHFG39FQ-34" target="AQyn9EbPQnhVtHFG39FQ-30" edge="1">
          <mxGeometry width="50" height="50" relative="1" as="geometry">
            <mxPoint x="459" y="1495" as="sourcePoint" />
            <mxPoint x="509" y="1445" as="targetPoint" />
          </mxGeometry>
        </mxCell>
        <mxCell id="5QruSL7Tj9jKYq54d8jK-20" value="" style="endArrow=none;html=1;rounded=0;exitX=1;exitY=0.5;exitDx=0;exitDy=0;entryX=0;entryY=0.5;entryDx=0;entryDy=0;" parent="1" source="AQyn9EbPQnhVtHFG39FQ-35" target="AQyn9EbPQnhVtHFG39FQ-30" edge="1">
          <mxGeometry width="50" height="50" relative="1" as="geometry">
            <mxPoint x="476" y="1512" as="sourcePoint" />
            <mxPoint x="526" y="1462" as="targetPoint" />
          </mxGeometry>
        </mxCell>
        <mxCell id="5QruSL7Tj9jKYq54d8jK-21" value="" style="endArrow=none;html=1;rounded=0;entryX=0;entryY=0.75;entryDx=0;entryDy=0;" parent="1" source="AQyn9EbPQnhVtHFG39FQ-36" target="AQyn9EbPQnhVtHFG39FQ-30" edge="1">
          <mxGeometry width="50" height="50" relative="1" as="geometry">
            <mxPoint x="493" y="1529" as="sourcePoint" />
            <mxPoint x="543" y="1479" as="targetPoint" />
          </mxGeometry>
        </mxCell>
        <mxCell id="5QruSL7Tj9jKYq54d8jK-22" value="" style="endArrow=none;html=1;rounded=0;exitX=1;exitY=0.5;exitDx=0;exitDy=0;entryX=0;entryY=1;entryDx=0;entryDy=0;" parent="1" source="AQyn9EbPQnhVtHFG39FQ-37" target="AQyn9EbPQnhVtHFG39FQ-30" edge="1">
          <mxGeometry width="50" height="50" relative="1" as="geometry">
            <mxPoint x="510" y="1546" as="sourcePoint" />
            <mxPoint x="560" y="1496" as="targetPoint" />
          </mxGeometry>
        </mxCell>
        <mxCell id="5QruSL7Tj9jKYq54d8jK-23" value="" style="endArrow=none;html=1;rounded=0;exitX=1;exitY=0.5;exitDx=0;exitDy=0;entryX=0.25;entryY=1;entryDx=0;entryDy=0;" parent="1" source="AQyn9EbPQnhVtHFG39FQ-38" target="AQyn9EbPQnhVtHFG39FQ-30" edge="1">
          <mxGeometry width="50" height="50" relative="1" as="geometry">
            <mxPoint x="527" y="1563" as="sourcePoint" />
            <mxPoint x="577" y="1513" as="targetPoint" />
          </mxGeometry>
        </mxCell>
        <mxCell id="5QruSL7Tj9jKYq54d8jK-24" value="" style="endArrow=none;html=1;rounded=0;entryX=0.417;entryY=0.975;entryDx=0;entryDy=0;entryPerimeter=0;" parent="1" source="AQyn9EbPQnhVtHFG39FQ-46" target="AQyn9EbPQnhVtHFG39FQ-38" edge="1">
          <mxGeometry width="50" height="50" relative="1" as="geometry">
            <mxPoint x="544" y="1580" as="sourcePoint" />
            <mxPoint x="594" y="1530" as="targetPoint" />
          </mxGeometry>
        </mxCell>
        <mxCell id="5QruSL7Tj9jKYq54d8jK-25" value="Length " style="ellipse;whiteSpace=wrap;html=1;fontSize=22;" parent="1" vertex="1">
          <mxGeometry x="-309" y="1734" width="120" height="80" as="geometry" />
        </mxCell>
        <mxCell id="5QruSL7Tj9jKYq54d8jK-26" value="Width" style="ellipse;whiteSpace=wrap;html=1;fontSize=22;" parent="1" vertex="1">
          <mxGeometry x="-339" y="1649" width="120" height="80" as="geometry" />
        </mxCell>
        <mxCell id="5QruSL7Tj9jKYq54d8jK-27" value="Height " style="ellipse;whiteSpace=wrap;html=1;fontSize=22;" parent="1" vertex="1">
          <mxGeometry x="-339" y="1547" width="120" height="80" as="geometry" />
        </mxCell>
        <mxCell id="5QruSL7Tj9jKYq54d8jK-28" value="" style="endArrow=none;html=1;rounded=0;exitX=1;exitY=0.5;exitDx=0;exitDy=0;" parent="1" source="5QruSL7Tj9jKYq54d8jK-25" target="AQyn9EbPQnhVtHFG39FQ-38" edge="1">
          <mxGeometry width="50" height="50" relative="1" as="geometry">
            <mxPoint x="-88" y="1822" as="sourcePoint" />
            <mxPoint x="-2" y="1688" as="targetPoint" />
          </mxGeometry>
        </mxCell>
        <mxCell id="5QruSL7Tj9jKYq54d8jK-29" value="" style="endArrow=none;html=1;rounded=0;entryX=0;entryY=0.5;entryDx=0;entryDy=0;exitX=1;exitY=0.5;exitDx=0;exitDy=0;" parent="1" source="5QruSL7Tj9jKYq54d8jK-26" target="AQyn9EbPQnhVtHFG39FQ-38" edge="1">
          <mxGeometry width="50" height="50" relative="1" as="geometry">
            <mxPoint x="-71" y="1839" as="sourcePoint" />
            <mxPoint x="15" y="1705" as="targetPoint" />
          </mxGeometry>
        </mxCell>
        <mxCell id="5QruSL7Tj9jKYq54d8jK-30" value="" style="endArrow=none;html=1;rounded=0;exitX=1;exitY=0.5;exitDx=0;exitDy=0;" parent="1" source="5QruSL7Tj9jKYq54d8jK-27" target="AQyn9EbPQnhVtHFG39FQ-38" edge="1">
          <mxGeometry width="50" height="50" relative="1" as="geometry">
            <mxPoint x="-54" y="1856" as="sourcePoint" />
            <mxPoint x="32" y="1722" as="targetPoint" />
          </mxGeometry>
        </mxCell>
        <mxCell id="5QruSL7Tj9jKYq54d8jK-31" value="" style="endArrow=none;html=1;rounded=0;exitX=0.433;exitY=0;exitDx=0;exitDy=0;exitPerimeter=0;" parent="1" source="AQyn9EbPQnhVtHFG39FQ-47" target="AQyn9EbPQnhVtHFG39FQ-38" edge="1">
          <mxGeometry width="50" height="50" relative="1" as="geometry">
            <mxPoint x="-37" y="1873" as="sourcePoint" />
            <mxPoint x="49" y="1739" as="targetPoint" />
          </mxGeometry>
        </mxCell>
        <mxCell id="5QruSL7Tj9jKYq54d8jK-33" value="" style="endArrow=none;html=1;rounded=0;exitX=1;exitY=1;exitDx=0;exitDy=0;entryX=0.375;entryY=0.038;entryDx=0;entryDy=0;entryPerimeter=0;" parent="1" source="AQyn9EbPQnhVtHFG39FQ-39" target="AQyn9EbPQnhVtHFG39FQ-34" edge="1">
          <mxGeometry width="50" height="50" relative="1" as="geometry">
            <mxPoint x="102" y="1240" as="sourcePoint" />
            <mxPoint x="152" y="1190" as="targetPoint" />
          </mxGeometry>
        </mxCell>
        <mxCell id="5QruSL7Tj9jKYq54d8jK-34" value="" style="endArrow=none;html=1;rounded=0;exitX=1;exitY=1;exitDx=0;exitDy=0;entryX=0;entryY=0;entryDx=0;entryDy=0;" parent="1" source="AQyn9EbPQnhVtHFG39FQ-42" target="AQyn9EbPQnhVtHFG39FQ-34" edge="1">
          <mxGeometry width="50" height="50" relative="1" as="geometry">
            <mxPoint x="-169" y="1071" as="sourcePoint" />
            <mxPoint x="-32" y="1256" as="targetPoint" />
          </mxGeometry>
        </mxCell>
        <mxCell id="5QruSL7Tj9jKYq54d8jK-35" value="" style="endArrow=none;html=1;rounded=0;entryX=0;entryY=0.5;entryDx=0;entryDy=0;" parent="1" source="AQyn9EbPQnhVtHFG39FQ-41" target="AQyn9EbPQnhVtHFG39FQ-34" edge="1">
          <mxGeometry width="50" height="50" relative="1" as="geometry">
            <mxPoint x="-152" y="1088" as="sourcePoint" />
            <mxPoint x="-15" y="1273" as="targetPoint" />
          </mxGeometry>
        </mxCell>
        <mxCell id="5QruSL7Tj9jKYq54d8jK-37" value="" style="endArrow=none;html=1;rounded=0;entryX=0;entryY=0;entryDx=0;entryDy=0;" parent="1" source="AQyn9EbPQnhVtHFG39FQ-43" target="AQyn9EbPQnhVtHFG39FQ-35" edge="1">
          <mxGeometry width="50" height="50" relative="1" as="geometry">
            <mxPoint x="-328" y="1211" as="sourcePoint" />
            <mxPoint x="-77" y="1293" as="targetPoint" />
          </mxGeometry>
        </mxCell>
        <mxCell id="5QruSL7Tj9jKYq54d8jK-38" value="" style="endArrow=none;html=1;rounded=0;entryX=0.017;entryY=0.613;entryDx=0;entryDy=0;exitX=1.033;exitY=0.363;exitDx=0;exitDy=0;exitPerimeter=0;entryPerimeter=0;" parent="1" source="AQyn9EbPQnhVtHFG39FQ-44" target="AQyn9EbPQnhVtHFG39FQ-35" edge="1">
          <mxGeometry width="50" height="50" relative="1" as="geometry">
            <mxPoint x="-425" y="1321" as="sourcePoint" />
            <mxPoint x="-101" y="1352" as="targetPoint" />
          </mxGeometry>
        </mxCell>
        <mxCell id="5QruSL7Tj9jKYq54d8jK-39" value="" style="endArrow=none;html=1;rounded=0;entryX=0;entryY=1;entryDx=0;entryDy=0;exitX=1.025;exitY=0.413;exitDx=0;exitDy=0;exitPerimeter=0;" parent="1" source="AQyn9EbPQnhVtHFG39FQ-45" target="AQyn9EbPQnhVtHFG39FQ-35" edge="1">
          <mxGeometry width="50" height="50" relative="1" as="geometry">
            <mxPoint x="-408" y="1338" as="sourcePoint" />
            <mxPoint x="-84" y="1369" as="targetPoint" />
          </mxGeometry>
        </mxCell>
        <mxCell id="5QruSL7Tj9jKYq54d8jK-40" value="" style="endArrow=none;html=1;rounded=0;exitX=0.5;exitY=0;exitDx=0;exitDy=0;entryX=0.25;entryY=1;entryDx=0;entryDy=0;" parent="1" source="5QruSL7Tj9jKYq54d8jK-2" target="5QruSL7Tj9jKYq54d8jK-1" edge="1">
          <mxGeometry width="50" height="50" relative="1" as="geometry">
            <mxPoint x="901" y="1478" as="sourcePoint" />
            <mxPoint x="951" y="1428" as="targetPoint" />
          </mxGeometry>
        </mxCell>
        <mxCell id="5QruSL7Tj9jKYq54d8jK-42" value="" style="endArrow=none;html=1;rounded=0;exitX=0.5;exitY=0;exitDx=0;exitDy=0;" parent="1" source="5QruSL7Tj9jKYq54d8jK-4" target="5QruSL7Tj9jKYq54d8jK-1" edge="1">
          <mxGeometry width="50" height="50" relative="1" as="geometry">
            <mxPoint x="655" y="1819" as="sourcePoint" />
            <mxPoint x="710" y="1721" as="targetPoint" />
          </mxGeometry>
        </mxCell>
        <mxCell id="5QruSL7Tj9jKYq54d8jK-44" value="" style="endArrow=none;html=1;rounded=0;entryX=0;entryY=0.5;entryDx=0;entryDy=0;exitX=0.75;exitY=0;exitDx=0;exitDy=0;" parent="1" source="AQyn9EbPQnhVtHFG39FQ-24" target="AQyn9EbPQnhVtHFG39FQ-25" edge="1">
          <mxGeometry width="50" height="50" relative="1" as="geometry">
            <mxPoint x="731" y="662" as="sourcePoint" />
            <mxPoint x="781" y="612" as="targetPoint" />
          </mxGeometry>
        </mxCell>
        <mxCell id="5QruSL7Tj9jKYq54d8jK-45" value="" style="endArrow=none;html=1;rounded=0;entryX=0;entryY=0.5;entryDx=0;entryDy=0;exitX=1;exitY=0;exitDx=0;exitDy=0;" parent="1" source="AQyn9EbPQnhVtHFG39FQ-24" target="AQyn9EbPQnhVtHFG39FQ-26" edge="1">
          <mxGeometry width="50" height="50" relative="1" as="geometry">
            <mxPoint x="1025" y="748" as="sourcePoint" />
            <mxPoint x="1139" y="612" as="targetPoint" />
          </mxGeometry>
        </mxCell>
        <mxCell id="5QruSL7Tj9jKYq54d8jK-46" value="" style="endArrow=none;html=1;rounded=0;entryX=0;entryY=0.5;entryDx=0;entryDy=0;exitX=1;exitY=0.25;exitDx=0;exitDy=0;" parent="1" source="AQyn9EbPQnhVtHFG39FQ-24" target="AQyn9EbPQnhVtHFG39FQ-27" edge="1">
          <mxGeometry width="50" height="50" relative="1" as="geometry">
            <mxPoint x="1042" y="765" as="sourcePoint" />
            <mxPoint x="1156" y="629" as="targetPoint" />
          </mxGeometry>
        </mxCell>
        <mxCell id="5QruSL7Tj9jKYq54d8jK-47" value="" style="endArrow=none;html=1;rounded=0;entryX=0;entryY=0;entryDx=0;entryDy=0;exitX=1;exitY=0.5;exitDx=0;exitDy=0;" parent="1" source="AQyn9EbPQnhVtHFG39FQ-24" target="AQyn9EbPQnhVtHFG39FQ-28" edge="1">
          <mxGeometry width="50" height="50" relative="1" as="geometry">
            <mxPoint x="1059" y="782" as="sourcePoint" />
            <mxPoint x="1173" y="646" as="targetPoint" />
          </mxGeometry>
        </mxCell>
        <mxCell id="5QruSL7Tj9jKYq54d8jK-48" value="" style="endArrow=none;html=1;rounded=0;entryX=0;entryY=0;entryDx=0;entryDy=0;exitX=1.017;exitY=0.9;exitDx=0;exitDy=0;exitPerimeter=0;" parent="1" source="AQyn9EbPQnhVtHFG39FQ-24" target="AQyn9EbPQnhVtHFG39FQ-29" edge="1">
          <mxGeometry width="50" height="50" relative="1" as="geometry">
            <mxPoint x="1076" y="799" as="sourcePoint" />
            <mxPoint x="1190" y="663" as="targetPoint" />
          </mxGeometry>
        </mxCell>
        <mxCell id="5QruSL7Tj9jKYq54d8jK-49" value="" style="endArrow=none;html=1;rounded=0;exitX=1;exitY=0.5;exitDx=0;exitDy=0;entryX=0;entryY=0.5;entryDx=0;entryDy=0;" parent="1" source="AQyn9EbPQnhVtHFG39FQ-13" target="AQyn9EbPQnhVtHFG39FQ-19" edge="1">
          <mxGeometry width="50" height="50" relative="1" as="geometry">
            <mxPoint x="578" y="696" as="sourcePoint" />
            <mxPoint x="628" y="646" as="targetPoint" />
          </mxGeometry>
        </mxCell>
        <mxCell id="5QruSL7Tj9jKYq54d8jK-50" value="" style="endArrow=none;html=1;rounded=0;exitX=1;exitY=0.5;exitDx=0;exitDy=0;entryX=0;entryY=0.5;entryDx=0;entryDy=0;" parent="1" source="AQyn9EbPQnhVtHFG39FQ-19" target="AQyn9EbPQnhVtHFG39FQ-24" edge="1">
          <mxGeometry width="50" height="50" relative="1" as="geometry">
            <mxPoint x="578" y="696" as="sourcePoint" />
            <mxPoint x="628" y="646" as="targetPoint" />
          </mxGeometry>
        </mxCell>
        <mxCell id="5QruSL7Tj9jKYq54d8jK-51" value="&lt;font style=&quot;font-size: 20px;&quot;&gt;1&lt;/font&gt;" style="text;html=1;strokeColor=none;fillColor=none;align=center;verticalAlign=middle;whiteSpace=wrap;rounded=0;" parent="1" vertex="1">
          <mxGeometry x="358" y="731" width="60" height="30" as="geometry" />
        </mxCell>
        <mxCell id="5QruSL7Tj9jKYq54d8jK-52" value="&lt;font style=&quot;font-size: 40px;&quot;&gt;*&lt;/font&gt;" style="text;html=1;strokeColor=none;fillColor=none;align=center;verticalAlign=middle;whiteSpace=wrap;rounded=0;" parent="1" vertex="1">
          <mxGeometry x="978" y="684" width="60" height="30" as="geometry" />
        </mxCell>
        <mxCell id="5QruSL7Tj9jKYq54d8jK-53" value="&lt;font style=&quot;font-size: 20px;&quot;&gt;Create &lt;br&gt;&lt;/font&gt;" style="rhombus;whiteSpace=wrap;html=1;" parent="1" vertex="1">
          <mxGeometry x="292" y="459" width="80" height="80" as="geometry" />
        </mxCell>
        <mxCell id="5QruSL7Tj9jKYq54d8jK-54" value="" style="endArrow=none;html=1;rounded=0;exitX=0.675;exitY=-0.033;exitDx=0;exitDy=0;exitPerimeter=0;entryX=0.5;entryY=1;entryDx=0;entryDy=0;" parent="1" source="AQyn9EbPQnhVtHFG39FQ-13" target="5QruSL7Tj9jKYq54d8jK-53" edge="1">
          <mxGeometry width="50" height="50" relative="1" as="geometry">
            <mxPoint x="578" y="526" as="sourcePoint" />
            <mxPoint x="628" y="476" as="targetPoint" />
          </mxGeometry>
        </mxCell>
        <mxCell id="5QruSL7Tj9jKYq54d8jK-55" value="" style="endArrow=none;html=1;rounded=0;exitX=0.5;exitY=0;exitDx=0;exitDy=0;" parent="1" source="5QruSL7Tj9jKYq54d8jK-53" target="AQyn9EbPQnhVtHFG39FQ-10" edge="1">
          <mxGeometry width="50" height="50" relative="1" as="geometry">
            <mxPoint x="342" y="505" as="sourcePoint" />
            <mxPoint x="375" y="298" as="targetPoint" />
          </mxGeometry>
        </mxCell>
        <mxCell id="5QruSL7Tj9jKYq54d8jK-56" value="&lt;font style=&quot;font-size: 20px;&quot;&gt;1&lt;/font&gt;" style="text;html=1;strokeColor=none;fillColor=none;align=center;verticalAlign=middle;whiteSpace=wrap;rounded=0;" parent="1" vertex="1">
          <mxGeometry x="312" y="323" width="60" height="30" as="geometry" />
        </mxCell>
        <mxCell id="5QruSL7Tj9jKYq54d8jK-58" value="&lt;font style=&quot;font-size: 40px;&quot;&gt;*&lt;/font&gt;" style="text;html=1;strokeColor=none;fillColor=none;align=center;verticalAlign=middle;whiteSpace=wrap;rounded=0;" parent="1" vertex="1">
          <mxGeometry x="272" y="697" width="60" height="30" as="geometry" />
        </mxCell>
        <mxCell id="5QruSL7Tj9jKYq54d8jK-59" value="Have" style="rhombus;whiteSpace=wrap;html=1;fontSize=15;" parent="1" vertex="1">
          <mxGeometry x="714" y="232" width="80" height="80" as="geometry" />
        </mxCell>
        <mxCell id="5QruSL7Tj9jKYq54d8jK-60" value="" style="endArrow=none;html=1;rounded=0;entryX=1;entryY=0.5;entryDx=0;entryDy=0;" parent="1" source="AQyn9EbPQnhVtHFG39FQ-24" target="5QruSL7Tj9jKYq54d8jK-59" edge="1">
          <mxGeometry width="50" height="50" relative="1" as="geometry">
            <mxPoint x="527" y="628" as="sourcePoint" />
            <mxPoint x="577" y="578" as="targetPoint" />
            <Array as="points">
              <mxPoint x="969" y="272" />
            </Array>
          </mxGeometry>
        </mxCell>
        <mxCell id="5QruSL7Tj9jKYq54d8jK-61" value="" style="endArrow=none;html=1;rounded=0;exitX=1;exitY=0.5;exitDx=0;exitDy=0;entryX=0;entryY=0.5;entryDx=0;entryDy=0;" parent="1" source="AQyn9EbPQnhVtHFG39FQ-10" target="5QruSL7Tj9jKYq54d8jK-59" edge="1">
          <mxGeometry width="50" height="50" relative="1" as="geometry">
            <mxPoint x="527" y="628" as="sourcePoint" />
            <mxPoint x="577" y="578" as="targetPoint" />
          </mxGeometry>
        </mxCell>
        <mxCell id="5QruSL7Tj9jKYq54d8jK-62" value="&lt;font style=&quot;font-size: 20px;&quot;&gt;1&lt;/font&gt;" style="text;html=1;strokeColor=none;fillColor=none;align=center;verticalAlign=middle;whiteSpace=wrap;rounded=0;" parent="1" vertex="1">
          <mxGeometry x="392" y="232" width="60" height="30" as="geometry" />
        </mxCell>
        <mxCell id="5QruSL7Tj9jKYq54d8jK-64" value="&lt;font style=&quot;font-size: 40px;&quot;&gt;*&lt;/font&gt;" style="text;html=1;strokeColor=none;fillColor=none;align=center;verticalAlign=middle;whiteSpace=wrap;rounded=0;" parent="1" vertex="1">
          <mxGeometry x="875" y="748" width="60" height="30" as="geometry" />
        </mxCell>
        <mxCell id="5QruSL7Tj9jKYq54d8jK-65" value="" style="endArrow=none;html=1;rounded=0;entryX=1;entryY=0.5;entryDx=0;entryDy=0;" parent="1" source="AQyn9EbPQnhVtHFG39FQ-24" target="AQyn9EbPQnhVtHFG39FQ-31" edge="1">
          <mxGeometry width="50" height="50" relative="1" as="geometry">
            <mxPoint x="1057" y="802" as="sourcePoint" />
            <mxPoint x="1188" y="911" as="targetPoint" />
            <Array as="points">
              <mxPoint x="986" y="1131" />
            </Array>
          </mxGeometry>
        </mxCell>
        <mxCell id="5QruSL7Tj9jKYq54d8jK-66" value="" style="endArrow=none;html=1;rounded=0;exitX=1;exitY=0.122;exitDx=0;exitDy=0;entryX=0.5;entryY=1;entryDx=0;entryDy=0;exitPerimeter=0;" parent="1" source="AQyn9EbPQnhVtHFG39FQ-30" target="AQyn9EbPQnhVtHFG39FQ-31" edge="1">
          <mxGeometry width="50" height="50" relative="1" as="geometry">
            <mxPoint x="527" y="1223" as="sourcePoint" />
            <mxPoint x="577" y="1173" as="targetPoint" />
            <Array as="points">
              <mxPoint x="839" y="1377" />
            </Array>
          </mxGeometry>
        </mxCell>
        <mxCell id="5QruSL7Tj9jKYq54d8jK-67" value="&lt;font style=&quot;font-size: 20px;&quot;&gt;Make&lt;/font&gt;" style="rhombus;whiteSpace=wrap;html=1;" parent="1" vertex="1">
          <mxGeometry x="261" y="1037" width="114" height="119" as="geometry" />
        </mxCell>
        <mxCell id="5QruSL7Tj9jKYq54d8jK-68" value="" style="endArrow=none;html=1;rounded=0;exitX=0.5;exitY=0;exitDx=0;exitDy=0;entryX=0.75;entryY=1;entryDx=0;entryDy=0;" parent="1" source="5QruSL7Tj9jKYq54d8jK-67" target="AQyn9EbPQnhVtHFG39FQ-13" edge="1">
          <mxGeometry width="50" height="50" relative="1" as="geometry">
            <mxPoint x="527" y="1155" as="sourcePoint" />
            <mxPoint x="577" y="1105" as="targetPoint" />
          </mxGeometry>
        </mxCell>
        <mxCell id="5QruSL7Tj9jKYq54d8jK-69" value="" style="endArrow=none;html=1;rounded=0;" parent="1" source="AQyn9EbPQnhVtHFG39FQ-30" target="5QruSL7Tj9jKYq54d8jK-67" edge="1">
          <mxGeometry width="50" height="50" relative="1" as="geometry">
            <mxPoint x="527" y="1155" as="sourcePoint" />
            <mxPoint x="577" y="1105" as="targetPoint" />
          </mxGeometry>
        </mxCell>
        <mxCell id="5QruSL7Tj9jKYq54d8jK-70" value="&lt;font style=&quot;font-size: 20px;&quot;&gt;1&lt;/font&gt;" style="text;html=1;strokeColor=none;fillColor=none;align=center;verticalAlign=middle;whiteSpace=wrap;rounded=0;" parent="1" vertex="1">
          <mxGeometry x="312" y="818" width="60" height="30" as="geometry" />
        </mxCell>
        <mxCell id="5QruSL7Tj9jKYq54d8jK-71" value="&lt;font style=&quot;font-size: 40px;&quot;&gt;*&lt;/font&gt;" style="text;html=1;strokeColor=none;fillColor=none;align=center;verticalAlign=middle;whiteSpace=wrap;rounded=0;" parent="1" vertex="1">
          <mxGeometry x="312" y="1323" width="60" height="68" as="geometry" />
        </mxCell>
        <mxCell id="5QruSL7Tj9jKYq54d8jK-72" value="&lt;font style=&quot;font-size: 40px;&quot;&gt;*&lt;/font&gt;" style="text;html=1;strokeColor=none;fillColor=none;align=center;verticalAlign=middle;whiteSpace=wrap;rounded=0;" parent="1" vertex="1">
          <mxGeometry x="392" y="1355.25" width="60" height="30" as="geometry" />
        </mxCell>
        <mxCell id="5QruSL7Tj9jKYq54d8jK-73" value="&lt;font style=&quot;font-size: 20px;&quot;&gt;1&lt;/font&gt;" style="text;html=1;strokeColor=none;fillColor=none;align=center;verticalAlign=middle;whiteSpace=wrap;rounded=0;" parent="1" vertex="1">
          <mxGeometry x="918" y="808" width="60" height="30" as="geometry" />
        </mxCell>
        <mxCell id="5QruSL7Tj9jKYq54d8jK-74" value="&lt;font style=&quot;font-size: 20px;&quot;&gt;Update &lt;br&gt;&lt;/font&gt;" style="rhombus;whiteSpace=wrap;html=1;" parent="1" vertex="1">
          <mxGeometry x="287" y="1623" width="110" height="102" as="geometry" />
        </mxCell>
        <mxCell id="5QruSL7Tj9jKYq54d8jK-75" value="" style="endArrow=none;html=1;rounded=0;exitX=0.5;exitY=0;exitDx=0;exitDy=0;entryX=0.75;entryY=1;entryDx=0;entryDy=0;" parent="1" source="5QruSL7Tj9jKYq54d8jK-74" target="AQyn9EbPQnhVtHFG39FQ-30" edge="1">
          <mxGeometry width="50" height="50" relative="1" as="geometry">
            <mxPoint x="527" y="1750" as="sourcePoint" />
            <mxPoint x="577" y="1700" as="targetPoint" />
          </mxGeometry>
        </mxCell>
        <mxCell id="5QruSL7Tj9jKYq54d8jK-76" value="" style="endArrow=none;html=1;rounded=0;exitX=1;exitY=0.5;exitDx=0;exitDy=0;entryX=0;entryY=0.5;entryDx=0;entryDy=0;" parent="1" source="5QruSL7Tj9jKYq54d8jK-74" target="5QruSL7Tj9jKYq54d8jK-1" edge="1">
          <mxGeometry width="50" height="50" relative="1" as="geometry">
            <mxPoint x="544" y="1767" as="sourcePoint" />
            <mxPoint x="594" y="1717" as="targetPoint" />
          </mxGeometry>
        </mxCell>
        <mxCell id="5QruSL7Tj9jKYq54d8jK-77" value="&lt;font style=&quot;font-size: 20px;&quot;&gt;1&lt;/font&gt;" style="text;html=1;strokeColor=none;fillColor=none;align=center;verticalAlign=middle;whiteSpace=wrap;rounded=0;" parent="1" vertex="1">
          <mxGeometry x="302" y="1445" width="60" height="30" as="geometry" />
        </mxCell>
        <mxCell id="5QruSL7Tj9jKYq54d8jK-78" value="&lt;font style=&quot;font-size: 20px;&quot;&gt;1&lt;/font&gt;" style="text;html=1;strokeColor=none;fillColor=none;align=center;verticalAlign=middle;whiteSpace=wrap;rounded=0;" parent="1" vertex="1">
          <mxGeometry x="608" y="1649" width="60" height="30" as="geometry" />
        </mxCell>
        <mxCell id="86c9T29K8i2DVm1ublKm-1" value="number" style="ellipse;whiteSpace=wrap;html=1;" parent="1" vertex="1">
          <mxGeometry x="85" y="960" width="102" height="68" as="geometry" />
        </mxCell>
        <mxCell id="86c9T29K8i2DVm1ublKm-2" value="" style="endArrow=none;html=1;rounded=0;entryX=0.5;entryY=1;entryDx=0;entryDy=0;exitX=1;exitY=0.5;exitDx=0;exitDy=0;" parent="1" source="86c9T29K8i2DVm1ublKm-1" target="AQyn9EbPQnhVtHFG39FQ-13" edge="1">
          <mxGeometry width="50" height="50" relative="1" as="geometry">
            <mxPoint x="130" y="928" as="sourcePoint" />
            <mxPoint x="285" y="825" as="targetPoint" />
          </mxGeometry>
        </mxCell>
        <mxCell id="86c9T29K8i2DVm1ublKm-3" value="number" style="ellipse;whiteSpace=wrap;html=1;" parent="1" vertex="1">
          <mxGeometry x="1098" y="960" width="102" height="68" as="geometry" />
        </mxCell>
        <mxCell id="86c9T29K8i2DVm1ublKm-4" value="" style="endArrow=none;html=1;rounded=0;exitX=0.75;exitY=1;exitDx=0;exitDy=0;" parent="1" source="AQyn9EbPQnhVtHFG39FQ-24" target="86c9T29K8i2DVm1ublKm-3" edge="1">
          <mxGeometry width="50" height="50" relative="1" as="geometry">
            <mxPoint x="1057" y="802" as="sourcePoint" />
            <mxPoint x="1188" y="911" as="targetPoint" />
          </mxGeometry>
        </mxCell>
      </root>
    </mxGraphModel>
  </diagram>
</mxfile>
